#N canvas 928 452 621 633 12;
#X floatatom 410 473 5 0 0 0 - gui-lf -;
#X obj 17 236 unpack s f f f, f 16;
#X floatatom 474 473 5 0 0 0 - gui-mf -;
#X floatatom 542 473 5 0 0 0 - gui-hf -;
#X text 28 151 <--- incoming MATLAB data format: [symbol float float
float(;
#X text 191 382 <--- low frequency;
#X text 191 436 <--- medium frequency;
#X text 192 487 <--- high frequency;
#X obj 417 346 cnv 5 5 5 empty empty LOW 0 0 0 8 -262144 -260097 0
;
#X obj 409 316 cnv 5 5 5 empty empty HRV-RECEIVE 0 0 0 12 -262144 -66577
0;
#X obj 53 384 outlet;
#X obj 89 434 outlet;
#X obj 126 485 outlet;
#X obj 481 346 cnv 5 5 5 empty empty MID 0 0 0 8 -262144 -18689 0;
#X obj 547 346 cnv 5 5 5 empty empty HIGH 0 0 0 8 -262144 -1344 0;
#X text 22 586 sam bilbow 2021 - www.sambilbow.com;
#X obj 17 53 inlet;
#X obj 53 364 s gui-lf;
#X obj 89 413 s gui-mf;
#X text 15 5 hrv-receive.pd - patch that receives (default: UDP 7400)
HRV data from MATLAB and can be used as an abstraction via GUI;
#X obj 17 103 oscparse;
#X obj 17 81 netreceive -u -b 7400;
#X obj 126 464 s gui-hf;
#X obj 421 360 vsl 15 90 0 8 0 0 empty gui-lf empty 0 -9 0 10 -261682
-1 -1 0 1;
#X obj 486 360 vsl 15 90 0 8 0 0 empty gui-mf empty 0 -9 0 10 -204786
-1 -1 0 1;
#X obj 553 360 vsl 15 90 0 8 0 0 empty gui-hf empty 0 -9 0 10 -134462
-1 -1 0 1;
#X text 168 171 in hrv terms: [\ lf mf hf (;
#X text 171 79 <--- receive incoming data from UDP port 7400 (this
is where MATLAB is sending to) and parse to OSC;
#X text 58 53 <--- message inlet for changing port;
#X text 485 505 GUI;
#X obj 436 342 bng 8 250 50 0 empty empty empty 17 7 0 10 -261682 -1
-1;
#X obj 53 299 > 0;
#X obj 53 323 sel 1;
#X obj 89 299 > 0;
#X obj 89 323 sel 1;
#X obj 126 299 > 0;
#X obj 126 323 sel 1;
#X obj 501 342 bng 8 250 50 0 empty empty empty 17 7 0 10 -204786 -1
-1;
#X obj 570 342 bng 8 250 50 0 empty empty empty 17 7 0 10 -35571 -1
-1;
#X text 157 223 <--- separate incoming data into their symbol (backslash
\, don't need this) and float (numbers) counterparts and send a duplicate
to the GUI e.g. [s gui-lf];
#X text 178 310 <--- send bang if data is coming through;
#X connect 1 1 10 0;
#X connect 1 1 17 0;
#X connect 1 1 31 0;
#X connect 1 2 11 0;
#X connect 1 2 18 0;
#X connect 1 2 33 0;
#X connect 1 3 12 0;
#X connect 1 3 22 0;
#X connect 1 3 35 0;
#X connect 16 0 21 0;
#X connect 20 0 1 0;
#X connect 21 0 20 0;
#X connect 31 0 32 0;
#X connect 32 0 30 0;
#X connect 33 0 34 0;
#X connect 34 0 37 0;
#X connect 35 0 36 0;
#X connect 36 0 38 0;
#X coords 0 -1 1 1 190 200 2 400 300;
